<?xml version="1.0" standalone="no"?>
<!DOCTYPE svg PUBLIC "-//W3C//DTD SVG 20010904//EN"
 "http://www.w3.org/TR/2001/REC-SVG-20010904/DTD/svg10.dtd">
<svg version="1.0" xmlns="http://www.w3.org/2000/svg"
 width="1000.000000pt" height="1000.000000pt" viewBox="0 0 1000.000000 1000.000000"
 preserveAspectRatio="xMidYMid meet">
<metadata>
Created by potrace 1.14, written by Peter Selinger 2001-2017
</metadata>
<g transform="translate(0.000000,1000.000000) scale(0.100000,-0.100000)"
fill="#000000" stroke="none">
<path d="M4911 8034 c-78 -20 -152 -58 -361 -184 -102 -62 -194 -116 -205
-121 -11 -5 -27 -13 -35 -19 -21 -14 -332 -195 -350 -203 -8 -4 -31 -17 -50
-28 -54 -32 -333 -195 -371 -217 -46 -25 -405 -234 -449 -261 -19 -11 -42 -24
-50 -28 -8 -3 -32 -17 -53 -30 -21 -13 -53 -32 -70 -42 -422 -239 -466 -268
-522 -343 -83 -110 -85 -126 -85 -620 0 -404 -1 -429 -17 -424 -10 3 -40 8
-67 12 -70 9 -306 68 -352 89 -230 101 -320 184 -342 315 -16 95 18 254 80
370 139 258 463 490 833 597 87 25 176 45 243 55 45 7 82 15 82 20 0 4 -6 6
-12 3 -7 -2 -83 -6 -168 -10 -85 -3 -175 -8 -200 -10 -25 -2 -72 -7 -105 -10
-87 -8 -147 -15 -170 -20 -11 -2 -42 -7 -70 -10 -63 -8 -290 -53 -330 -65
-139 -41 -294 -95 -344 -120 -33 -17 -62 -30 -65 -30 -13 0 -138 -79 -196
-123 -152 -118 -246 -255 -286 -417 -19 -80 -25 -237 -11 -324 50 -315 308
-557 752 -705 172 -58 406 -114 565 -136 25 -3 52 -8 60 -10 8 -2 38 -6 65
-10 28 -3 66 -8 85 -10 19 -3 62 -7 95 -11 33 -3 70 -7 83 -9 13 -2 65 -7 115
-11 51 -3 100 -8 111 -10 10 -2 82 -6 160 -9 77 -3 155 -8 172 -10 85 -12 664
-18 1854 -20 723 -2 1351 -5 1395 -8 44 -3 132 -8 195 -11 63 -4 135 -9 160
-11 25 -2 79 -7 120 -10 41 -3 91 -7 110 -10 19 -2 55 -7 80 -10 146 -17 316
-42 373 -54 23 -6 58 -13 77 -16 19 -3 60 -13 90 -21 30 -8 64 -17 74 -19 24
-5 143 -43 171 -54 254 -100 407 -207 496 -345 136 -209 123 -487 -29 -676
-40 -48 -134 -139 -161 -154 -9 -5 -22 -16 -29 -23 -39 -39 -329 -195 -452
-243 -29 -12 -72 -29 -94 -39 -57 -26 -271 -107 -391 -148 l-100 -34 225 6
c124 3 241 8 260 10 19 2 71 6 115 10 128 10 205 19 305 35 30 5 71 11 90 14
19 3 46 8 60 10 14 3 38 7 54 10 186 33 451 109 596 173 346 151 542 348 594
598 13 63 14 202 2 285 -35 233 -162 445 -368 616 -99 83 -312 203 -473 266
-214 85 -531 173 -765 212 -13 3 -15 76 -16 562 -1 307 -4 574 -8 593 -21 106
-106 217 -216 281 -60 35 -586 341 -655 380 -16 9 -145 84 -285 165 -140 81
-268 156 -285 165 -16 10 -70 41 -120 70 -49 29 -108 63 -130 75 -104 59 -561
328 -645 380 -185 114 -318 150 -439 119z m255 -521 c27 -9 285 -154 574 -321
289 -168 539 -313 555 -322 197 -111 473 -277 482 -289 44 -59 41 -115 -8
-159 -25 -22 -268 -168 -389 -235 -14 -7 -153 -88 -310 -179 -157 -91 -301
-175 -320 -185 -19 -11 -145 -85 -280 -164 -135 -78 -269 -151 -299 -162 -65
-22 -166 -26 -238 -8 -29 7 -103 42 -165 78 -62 36 -131 75 -153 88 -22 12
-123 70 -225 130 -102 59 -201 117 -220 127 -19 11 -142 83 -272 159 -131 77
-242 139 -248 139 -5 0 -10 5 -10 10 0 6 -4 10 -9 10 -25 0 -323 185 -343 212
-27 38 -26 88 3 127 13 17 140 98 337 212 174 101 325 189 337 196 11 7 27 15
35 19 8 4 42 24 75 44 33 20 67 39 75 43 8 4 32 17 53 30 389 229 681 394 717
403 66 18 188 17 246 -3z"/>
<path d="M2785 6970 c-3 -6 1 -7 9 -4 18 7 21 14 7 14 -6 0 -13 -4 -16 -10z"/>
<path d="M6368 4645 c-2 -2 -68 -6 -148 -10 -80 -3 -165 -8 -190 -10 -43 -3
-214 -15 -290 -20 -85 -6 -218 -16 -250 -20 -19 -2 -73 -7 -120 -11 -47 -3
-98 -8 -115 -9 -16 -2 -70 -6 -120 -10 -49 -4 -92 -9 -94 -11 -7 -6 -5 -2604
2 -2610 19 -19 250 77 319 134 11 8 660 387 788 460 25 14 236 136 470 272
234 136 445 258 470 272 173 97 446 261 473 285 50 42 82 90 108 163 l24 65 0
495 0 495 -60 12 c-33 7 -80 15 -105 18 -25 3 -56 8 -70 10 -14 3 -59 7 -100
11 -41 3 -86 8 -100 11 -27 6 -886 14 -892 8z"/>
<path d="M4777 4523 c-1 -1 -40 -4 -87 -8 -47 -4 -95 -8 -108 -10 -12 -2 -62
-7 -110 -10 -48 -4 -89 -9 -92 -12 -7 -6 -6 -2263 1 -2263 5 0 128 -73 254
-150 91 -56 214 -117 245 -121 l25 -4 0 1293 0 1293 -63 -3 c-35 -1 -64 -3
-65 -5z m-76 -2012 c38 -39 40 -96 4 -135 -13 -14 -30 -26 -37 -27 -7 0 -20
-2 -29 -4 -31 -6 -80 24 -94 58 -42 100 79 184 156 108z"/>
<path d="M4218 4475 c-1 -2 -44 -6 -93 -10 -50 -4 -106 -8 -125 -10 -19 -2
-80 -6 -135 -10 -55 -4 -111 -8 -125 -9 l-25 -3 0 -912 -1 -911 36 -22 c19
-11 49 -28 65 -38 17 -9 117 -67 224 -129 106 -62 196 -109 199 -106 4 3 7
490 7 1080 0 1035 -2 1105 -27 1080z m-195 -1539 c42 -28 53 -82 27 -131 -32
-60 -141 -59 -169 2 -45 99 52 187 142 129z"/>
<path d="M3559 4426 c-5 -5 -311 -23 -456 -27 l-53 -1 0 -702 0 -702 77 -45
c43 -24 85 -48 95 -54 9 -5 67 -39 128 -75 62 -36 138 -80 171 -98 l59 -33 0
43 c5 419 -1 1683 -7 1689 -5 5 -11 7 -14 5z m-216 -1108 c65 -34 78 -109 28
-159 -84 -84 -216 33 -145 128 29 39 79 52 117 31z"/>
<path d="M2310 3992 c1 -385 2 -407 22 -461 43 -116 107 -186 228 -253 25 -14
101 -58 170 -98 69 -39 140 -80 158 -91 l32 -18 -2 659 -3 660 -303 3 -303 3
1 -404z m373 -282 c50 -39 45 -132 -9 -160 -89 -48 -181 35 -138 125 26 55 99
73 147 35z"/>
</g>
</svg>
